<?xml version="1.0" encoding="UTF-8"?>
<svg width="60px" height="60px" viewBox="0 0 60 60" version="1.1" xmlns="http://www.w3.org/2000/svg" xmlns:xlink="http://www.w3.org/1999/xlink">
    <defs></defs>
    <g id="Symbols" stroke="none" stroke-width="1" fill="none" fill-rule="evenodd">
        <g id="ForWhatCard_1" transform="translate(-104.000000, -31.000000)" fill="#965EDE">
            <g id="1">
                <g id="ico_-copy-29" transform="translate(104.000000, 31.000000)">
                    <path d="M34.9994266,36.003 C35.0004266,35.452 34.5544266,35.003 34.0034266,35 C33.9844266,35 32.1964266,34.98 30.4474266,34.106 C30.1664266,33.965 29.8344266,33.965 29.5534266,34.106 C27.8044266,34.98 26.0164266,35 26.0004266,35 C25.4474266,35 25.0004266,35.448 25.0004266,36 C25.0004266,36.552 25.4474266,37 26.0004266,37 C26.0854266,37 27.9754266,36.989 30.0004266,36.104 C32.0254266,36.989 33.9154266,37 34.0004266,37 C34.5514266,37 34.9974266,36.554 34.9994266,36.003 L34.9994266,36.003 Z M29.0004266,38 C28.4474266,38 28.0004266,38.448 28.0004266,39 C28.0004266,39.552 28.4474266,40 29.0004266,40 L31.0004266,40 C31.5534266,40 32.0004266,39.552 32.0004266,39 C32.0004266,38.448 31.5534266,38 31.0004266,38 L29.0004266,38 Z M22.0004266,26 C22.0004266,27.103 22.8974266,28 24.0004266,28 L26.0004266,28 C27.1034266,28 28.0004266,27.103 28.0004266,26 L28.0004266,25 C28.0004266,24.449 27.5524266,24 27.0004266,24 L23.0004266,24 C22.4484266,24 22.0004266,24.449 22.0004266,25 L22.0004266,26 Z M32.0004266,26 C32.0004266,27.103 32.8974266,28 34.0004266,28 L36.0004266,28 C37.1034266,28 38.0004266,27.103 38.0004266,26 L38.0004266,25 C38.0004266,24.449 37.5524266,24 37.0004266,24 L33.0004266,24 C32.4484266,24 32.0004266,24.449 32.0004266,25 L32.0004266,26 Z M12.0004266,27 L12.0004266,23 C12.0004266,21.346 13.3464266,20 15.0004266,20 C15.5534266,20 16.0004266,20.448 16.0004266,21 C16.0084266,21.31 16.0984266,21.668 16.4174266,21.86 C17.2324266,19.865 18.0004266,16.624 18.0004266,15 C18.0004266,14.448 18.4474266,14 19.0004266,14 C25.2424266,14 34.6874266,12.91 36.1434266,10.485 C36.3734266,10.1 36.8384266,9.917 37.2674266,10.036 C37.7004266,10.156 38.0004266,10.551 38.0004266,11 C38.0004266,14.545 41.6704266,18.256 41.7074266,18.293 C42.0984266,18.684 42.0984266,19.316 41.7074266,19.707 C41.3164266,20.098 40.6844266,20.098 40.2934266,19.707 C40.1454266,19.559 37.1914266,16.57 36.2714266,13.018 C32.2144266,15.55 23.0954266,15.935 19.9434266,15.991 C19.7414266,17.966 19.0284266,20.779 18.2414266,22.681 L20.1494266,24.112 C20.5304266,22.893 21.6564266,22 23.0004266,22 L27.0004266,22 C28.6544266,22 30.0004266,23.346 30.0004266,25 C30.0004266,23.346 31.3464266,22 33.0004266,22 L37.0004266,22 C38.3444266,22 39.4704266,22.893 39.8514266,24.112 L42.4004266,22.2 C42.8424266,21.867 43.4694266,21.958 43.8004266,22.4 C44.1324266,22.842 44.0424266,23.469 43.6004266,23.8 L39.9454266,26.541 C39.6794266,28.489 38.0204266,30 36.0004266,30 L34.0004266,30 C31.7944266,30 30.0004266,28.206 30.0004266,26 C30.0004266,28.206 28.2064266,30 26.0004266,30 L24.0004266,30 C21.9794266,30 20.3214266,28.489 20.0554266,26.541 L16.6344266,23.975 C15.3884266,23.851 14.6464266,23.118 14.2844266,22.303 C14.1084266,22.483 14.0004266,22.729 14.0004266,23 L14.0004266,27 C14.0004266,27.551 14.4484266,28 15.0004266,28 C15.4174266,28 15.7904266,28.259 15.9374266,28.649 C15.9664266,28.728 18.9194266,36.576 20.8324266,39.445 L20.9964266,39.693 C22.1944266,41.511 23.8364266,44 30.0004266,44 C36.1644266,44 37.8064266,41.511 39.0044266,39.693 L39.1684266,39.445 C41.0814266,36.576 44.0344266,28.728 44.0634266,28.649 C44.2104266,28.259 44.5834266,28 45.0004266,28 C45.5524266,28 46.0004266,27.551 46.0004266,27 L46.0004266,23 C46.0004266,22.449 45.5524266,22 45.0004266,22 C44.4474266,22 44.0004266,21.552 44.0004266,21 L44.0004266,15 C43.9994266,14.593 43.8664266,5 35.0004266,5 C34.6534266,5 34.3324266,4.82 34.1494266,4.526 C33.9674266,4.231 33.9504266,3.863 34.1054266,3.553 C34.3014266,3.162 34.2164266,3.025 34.1854266,2.974 C33.9614266,2.612 32.8284266,2 30.0004266,2 C14.2274266,2 14.0024266,16.389 14.0004266,17.002 C13.9984266,17.553 13.5514266,17.999 13.0004266,17.999 L12.9984266,17.999 C12.4474266,17.999 12.0004266,17.552 12.0004266,17 C12.0004266,16.83 12.2064266,0 30.0004266,0 C32.1434266,0 34.9034266,0.334 35.8864266,1.922 C36.0604266,2.203 36.2164266,2.583 36.2314266,3.055 C43.9214266,3.759 46.0004266,11.052 46.0004266,15 L46.0004266,20.171 C47.1644266,20.584 48.0004266,21.696 48.0004266,23 L48.0004266,27 C48.0004266,28.405 47.0294266,29.587 45.7234266,29.912 C44.9934266,31.81 42.5824266,37.93 40.8324266,40.555 L40.6744266,40.794 C39.3904266,42.741 37.2414266,46 30.0004266,46 C22.7594266,46 20.6104266,42.741 19.3264266,40.794 L19.1684266,40.555 C17.4184266,37.93 15.0074266,31.81 14.2774266,29.912 C12.9714266,29.587 12.0004266,28.405 12.0004266,27 L12.0004266,27 Z M31.0004266,51 C31.0004266,50.449 30.5524266,50 30.0004266,50 C29.4484266,50 29.0004266,50.449 29.0004266,51 C29.0004266,51.551 29.4484266,52 30.0004266,52 C30.5524266,52 31.0004266,51.551 31.0004266,51 L31.0004266,51 Z M33.0004266,51 C33.0004266,52.302 32.1614266,53.401 31.0004266,53.816 L31.0004266,59 C31.0004266,59.552 30.5534266,60 30.0004266,60 C29.4474266,60 29.0004266,59.552 29.0004266,59 L29.0004266,53.815 C27.8394266,53.401 27.0004266,52.302 27.0004266,51 C27.0004266,49.346 28.3464266,48 30.0004266,48 C31.6544266,48 33.0004266,49.346 33.0004266,51 L33.0004266,51 Z M23.0004266,48 C9.36142662,48 2.59242662,50.062 1.03042662,54.757 L0.030426623,58.757 C-0.104573377,59.294 0.222426623,59.836 0.758426623,59.97 C0.839426623,59.991 0.921426623,60 1.00142662,60 C1.44942662,60 1.85642662,59.697 1.97042662,59.243 L2.94842662,55.316 C4.11442662,51.819 10.4094266,50.079 22.1814266,50.003 L24.0204266,59.196 C24.1274266,59.737 24.6494266,60.09 25.1964266,59.981 C25.7374266,59.872 26.0894266,59.345 25.9804266,58.804 L23.9804266,48.804 C23.8874266,48.336 23.4774266,48 23.0004266,48 L23.0004266,48 Z M59.2424266,59.97 C59.1614266,59.991 59.0794266,60 58.9994266,60 C58.5514266,60.001 58.1444266,59.697 58.0304266,59.243 L57.0304266,55.243 C55.9174266,51.913 49.2714266,50.096 37.8194266,50.043 L35.9804266,59.197 C35.8714266,59.738 35.3434266,60.086 34.8034266,59.981 C34.2624266,59.872 33.9114266,59.345 34.0204266,58.803 L36.0204266,48.845 C36.1134266,48.378 36.5224266,48.043 36.9974266,48.042 C37.1014266,48.041 37.2044266,48.041 37.3074266,48.041 C50.3804266,48.041 57.4594266,50.215 58.9484266,54.684 L59.9704266,58.757 C60.1044266,59.294 59.7784266,59.836 59.2424266,59.97 L59.2424266,59.97 Z" id="father"></path>
                </g>
            </g>
        </g>
    </g>
</svg>
