<?xml version="1.0" encoding="UTF-8"?>
<svg width="102px" height="48px" viewBox="0 0 102 48" version="1.1" xmlns="http://www.w3.org/2000/svg" xmlns:xlink="http://www.w3.org/1999/xlink">
<defs></defs>
<g id="Page-1" stroke="none" stroke-width="1" fill="none" fill-rule="evenodd">
<g id="Group">
<path d="M42.16,18.2 L38.848,41 L33.712,41 L29.104,7.4 L32.752,7.4 L36.688,36.008 L40.432,7.448 L44.128,7.448 L47.824,36.056 L51.616,7.4 L54.88,7.4 L50.32,41 L45.376,41 L42.16,18.2 Z M59.404,7.4 L63.148,7.4 L63.148,41 L59.404,41 L59.404,7.4 Z M75.544,7.064 C80.632,7.064 83.032,10.376 83.032,15.464 L83.032,16.376 L79.48,16.376 L79.48,15.272 C79.48,12.248 78.328,10.472 75.64,10.472 C72.952,10.472 71.8,12.248 71.8,15.224 C71.8,22.76 83.08,23.48 83.08,32.936 C83.08,38.024 80.632,41.336 75.496,41.336 C70.36,41.336 67.96,38.024 67.96,32.936 L67.96,31.016 L71.464,31.016 L71.464,33.128 C71.464,36.152 72.712,37.928 75.4,37.928 C78.088,37.928 79.336,36.152 79.336,33.128 C79.336,25.64 68.104,24.92 68.104,15.464 C68.104,10.28 70.504,7.064 75.544,7.064 Z M91.588,22.28 L99.796,22.28 L99.796,25.64 L91.588,25.64 L91.588,37.592 L101.668,37.592 L101.668,41 L87.844,41 L87.844,7.4 L101.668,7.4 L101.668,10.808 L91.588,10.808 L91.588,22.28 Z" id="WISE" fill-opacity="0.940330616" fill="#000000"></path>
<rect id="Rectangle-4-Copy" fill="#DB3674" x="0" y="18" width="12" height="12"></rect>
<rect id="Rectangle-4-Copy-2" fill="#965EDE" x="0" y="0" width="12" height="12"></rect>
<rect id="Rectangle-4-Copy-3" fill="#FC9C04" x="0" y="36" width="12" height="12"></rect>
</g>
</g>
</svg>
