<?xml version="1.0" encoding="UTF-8"?>
<svg width="60px" height="60px" viewBox="0 0 60 60" version="1.1" xmlns="http://www.w3.org/2000/svg" xmlns:xlink="http://www.w3.org/1999/xlink">
    <defs></defs>
    <g id="Symbols" stroke="none" stroke-width="1" fill="none" fill-rule="evenodd">
        <g id="ForWhatCard_3" transform="translate(-104.000000, -31.000000)" fill="#FC9C04">
            <g id="3">
                <g id="ico_-copy-17" transform="translate(104.000000, 31.000000)">
                    <path d="M59.3167764,59.949 C59.2117764,59.984 59.1047764,60.001 59.0007764,60.001 C58.5817764,60.001 58.1917764,59.736 58.0517764,59.317 L57.0517764,56.317 C56.9507764,56.014 56.8597764,55.697 56.7657764,55.37 C56.0757764,52.961 55.2797764,50.251 48.0007764,50.023 L48.0007764,59 C48.0007764,59.553 47.5527764,60 47.0007764,60 C46.4477764,60 46.0007764,59.553 46.0007764,59 L46.0007764,50 L44.0007764,50 L44.0007764,59 C44.0007764,59.553 43.5527764,60 43.0007764,60 C42.4477764,60 42.0007764,59.553 42.0007764,59 L42.0007764,50 L41.0007764,50 C40.4477764,50 40.0007764,49.553 40.0007764,49 C40.0007764,48.448 40.4477764,48 41.0007764,48 L47.0007764,48 C56.7357764,48 57.8647764,51.942 58.6887764,54.819 C58.7747764,55.117 58.8567764,55.408 58.9487764,55.684 L59.9487764,58.684 C60.1237764,59.208 59.8407764,59.774 59.3167764,59.949 L59.3167764,59.949 Z M25.0007764,21 C26.1037764,21 27.0007764,21.897 27.0007764,23 C27.0007764,24.103 26.1037764,25 25.0007764,25 C23.8977764,25 23.0007764,24.103 23.0007764,23 C23.0007764,21.897 23.8977764,21 25.0007764,21 L25.0007764,21 Z M35.0007764,21 C36.1037764,21 37.0007764,21.897 37.0007764,23 C37.0007764,24.103 36.1037764,25 35.0007764,25 C33.8977764,25 33.0007764,24.103 33.0007764,23 C33.0007764,21.897 33.8977764,21 35.0007764,21 L35.0007764,21 Z M21.0667764,23.651 C21.3797764,25.547 23.0177764,27 25.0007764,27 C26.8587764,27 28.4107764,25.72 28.8587764,24 L31.1427764,24 C31.5897764,25.72 33.1417764,27 35.0007764,27 C36.9827764,27 38.6207764,25.547 38.9347764,23.651 L42.4477764,21.895 C42.9417764,21.648 43.1417764,21.047 42.8947764,20.553 C42.6487764,20.059 42.0467764,19.858 41.5527764,20.106 L38.7117764,21.527 C38.1227764,20.05 36.6847764,19 35.0007764,19 C33.1417764,19 31.5897764,20.28 31.1427764,22 L28.8587764,22 C28.4107764,20.28 26.8587764,19 25.0007764,19 C23.3167764,19 21.8787764,20.05 21.2897764,21.527 L18.4477764,20.106 C17.9527764,19.858 17.3527764,20.059 17.1057764,20.553 C16.8587764,21.047 17.0587764,21.648 17.5527764,21.895 L21.0667764,23.651 Z M31.0297764,56 C31.0297764,56.553 30.5827764,57 30.0297764,57 C29.4777764,57 29.0247764,56.553 29.0247764,56 C29.0247764,55.448 29.4677764,55 30.0207764,55 L30.0297764,55 C30.5827764,55 31.0297764,55.448 31.0297764,56 L31.0297764,56 Z M31.0297764,59 C31.0297764,59.553 30.5827764,60 30.0297764,60 C29.4777764,60 29.0247764,59.553 29.0247764,59 C29.0247764,58.448 29.4677764,58 30.0207764,58 L30.0297764,58 C30.5827764,58 31.0297764,58.448 31.0297764,59 L31.0297764,59 Z M20.0007764,49 C20.0007764,49.553 19.5527764,50 19.0007764,50 L18.0007764,50 L18.0007764,59 C18.0007764,59.553 17.5527764,60 17.0007764,60 C16.4477764,60 16.0007764,59.553 16.0007764,59 L16.0007764,50 L14.0007764,50 L14.0007764,59 C14.0007764,59.553 13.5527764,60 13.0007764,60 C12.4477764,60 12.0007764,59.553 12.0007764,59 L12.0007764,50.023 C4.72077642,50.251 3.92477642,52.961 3.23477642,55.37 C3.14077642,55.697 3.04977642,56.014 2.94877642,56.317 L1.94877642,59.317 C1.80977642,59.736 1.41977642,60.001 1.00077642,60.001 C0.895776417,60.001 0.788776417,59.984 0.683776417,59.949 C0.159776417,59.774 -0.123223583,59.208 0.0517764168,58.684 L1.05177642,55.684 C1.14377642,55.408 1.22677642,55.117 1.31177642,54.819 C2.13577642,51.942 3.26477642,48 13.0007764,48 L19.0007764,48 C19.5527764,48 20.0007764,48.448 20.0007764,49 L20.0007764,49 Z M37.8687764,48.504 C38.1427764,48.984 37.9757764,49.595 37.4967764,49.868 L30.4967764,53.868 C30.4207764,53.912 30.3387764,53.945 30.2547764,53.967 C30.1707764,53.989 30.0857764,54 30.0017764,54 L30.0007764,54 L29.9997764,54 C29.9147764,54 29.8297764,53.989 29.7457764,53.967 C29.6617764,53.945 29.5807764,53.912 29.5047764,53.868 L22.5037764,49.868 C22.0247764,49.595 21.8587764,48.984 22.1317764,48.504 C22.4057764,48.025 23.0177764,47.859 23.4967764,48.132 L30.0007764,51.848 L36.5047764,48.132 C36.9837764,47.859 37.5947764,48.025 37.8687764,48.504 L37.8687764,48.504 Z M32.0007764,35 C32.0007764,35.553 31.5527764,36 31.0007764,36 L29.0007764,36 C28.4477764,36 28.0007764,35.553 28.0007764,35 C28.0007764,34.448 28.4477764,34 29.0007764,34 L31.0007764,34 C31.5527764,34 32.0007764,34.448 32.0007764,35 L32.0007764,35 Z M30.0007764,46 C22.9257764,46 19.6227764,42.995 18.3537764,35.121 C20.0037764,35.958 21.9317764,36.494 23.0877764,36.769 C23.0297764,37.211 23.0007764,37.629 23.0007764,38 C23.0007764,38.552 23.4467764,38.998 23.9977764,38.999 L24.0007764,38.999 C24.5507764,38.999 24.9977764,38.553 25.0007764,38.003 C25.0017764,37.758 25.0847764,32 30.0007764,32 C34.9167764,32 34.9997764,37.758 35.0007764,38 C35.0007764,38.553 35.4477764,39 36.0007764,39 C36.5527764,39 37.0007764,38.553 37.0007764,38 C37.0007764,37.629 36.9707764,37.211 36.9127764,36.769 C38.0837764,36.491 40.0447764,35.944 41.7087764,35.089 C40.5227764,43.281 37.4707764,46 30.0007764,46 L30.0007764,46 Z M45.9607764,25.843 C47.1457764,25.441 48.0007764,24.319 48.0007764,23 L48.0007764,21 C48.0007764,19.591 47.2147764,18.521 46.0007764,18.146 L46.0007764,11 C46.0007764,4.421 41.5797764,0 35.0007764,0 L9.00077642,0 C8.57977642,0 8.20377642,0.264 8.06077642,0.659 C7.91677642,1.055 8.03677642,1.498 8.35977642,1.768 C8.41577642,1.815 14.0007764,6.533 14.0007764,11 L14.0007764,15 C14.0007764,15.553 14.4477764,16 15.0007764,16 C15.4797764,16 26.3247764,15.947 34.3987764,11.511 C35.7517764,15.025 39.1947764,16 41.0007764,16 C41.5527764,16 42.0007764,15.553 42.0007764,15 C42.0007764,14.448 41.5527764,14 41.0007764,14 C40.8297764,14 36.8107764,13.952 35.9807764,9.804 C35.9167764,9.482 35.6977764,9.212 35.3967764,9.082 C35.0947764,8.952 34.7487764,8.979 34.4707764,9.152 C28.1247764,13.118 19.0037764,13.841 16.0007764,13.971 L16.0007764,11 C16.0007764,7.445 13.3617764,4.002 11.4817764,2 L35.0007764,2 C40.4677764,2 44.0007764,5.533 44.0007764,11 L44.0007764,19 C44.0007764,19.553 44.4477764,20 45.0007764,20 C45.6637764,20 46.0007764,20.337 46.0007764,21 L46.0007764,23 C46.0007764,23.552 45.5517764,24 45.0007764,24 C44.4477764,24 44.0007764,24.448 44.0007764,25 C44.0007764,25.037 43.9757764,28.73 42.1317764,32.437 C40.8437764,33.575 38.1217764,34.417 36.4557764,34.82 C35.6337764,32.407 33.7557764,30 30.0007764,30 C26.2447764,30 24.3667764,32.407 23.5457764,34.82 C21.9007764,34.422 19.2267764,33.597 17.9187764,32.481 C16.0347764,28.78 16.0007764,25.037 16.0007764,24.999 C15.9987764,24.448 15.5517764,24 15.0007764,24 C14.4487764,24 14.0007764,23.552 14.0007764,23 L14.0007764,21 C14.0007764,20.384 14.3837764,20 15.0007764,20 C15.5527764,20 16.0007764,19.553 16.0007764,19 C16.0007764,18.448 15.5527764,18 15.0007764,18 C13.2897764,18 12.0007764,19.29 12.0007764,21 L12.0007764,23 C12.0007764,24.319 12.8557764,25.442 14.0407764,25.843 C14.1487764,27.241 14.5537764,30.178 16.0367764,33.185 C16.0517764,33.264 16.0657764,33.341 16.0987764,33.415 C16.9377764,41.032 19.2677764,48 30.0007764,48 C37.6907764,48 42.7117764,45.532 43.9477764,33.282 C45.4497764,30.242 45.8527764,27.257 45.9607764,25.843 L45.9607764,25.843 Z" id="uncle-hipster" transform="translate(30.000276, 30.000500) scale(-1, 1) translate(-30.000276, -30.000500) "></path>
                </g>
            </g>
        </g>
    </g>
</svg>
