<?xml version="1.0" encoding="UTF-8"?>
<svg width="1047px" height="414px" viewBox="0 0 1047 414" version="1.1" xmlns="http://www.w3.org/2000/svg" xmlns:xlink="http://www.w3.org/1999/xlink">

    <defs>
        <linearGradient x1="100%" y1="100%" x2="2.83276945e-14%" y2="-2.22044605e-14%" id="linearGradient-1">
            <stop stop-color="#FDA000" offset="0%"></stop>
            <stop stop-color="#D3208B" offset="50%"></stop>
            <stop stop-color="#879AF2" offset="100%"></stop>
        </linearGradient>
        <path d="M228.353522,207 L228.353522,0 C342.962373,0 436,92.7479675 436,207 C436,321.252033 342.962373,414 228.353522,414 C196.27805,414 169.642278,408.203252 140.568019,394.552846 L228.353522,207 Z" id="path-2"></path>
        <circle id="path-3" cx="210" cy="210" r="97"></circle>
    </defs>
    <g id="Page-1" stroke="none" stroke-width="1" fill="none" fill-rule="evenodd">
        <g id="09_Contacts-Copy-42" transform="translate(-458.000000, -5702.000000)">
            <g id="PieChart" transform="translate(72.000000, 5449.000000)">
                <g id="Group-6" transform="translate(382.000000, 253.000000)">
                    <g id="ChartPie" transform="translate(298.000000, 0.000000)">
                        <g id="Circle-Copy" transform="translate(218.000000, 207.000000) scale(-1, -1) translate(-218.000000, -207.000000) " fill-rule="nonzero">
                            <g id="Group-4">
                                <path d="M223.095465,198.08 L55,143.681301 C79.1048578,69.7181572 145.034038,22 223.095465,22 L223.095465,198.08 Z" id="Shape" fill="#D4DBE3"></path>
                                <path d="M220.494033,201.014286 L13.9880668,176.11203 C15.6791985,162.646366 18.3098477,150.840852 22.6316287,137.928571 L220.494033,201.014286 Z" id="Shape" fill="#FC9C04"></path>
                                <path d="M206.505967,203.479245 L0.499820812,217.8 C-0.433178037,204.223181 -0.0599784974,191.948248 1.61941943,178.371429 L206.505967,203.479245 Z" id="Shape" fill="#E53544"></path>
                                <path d="M221.505967,206 L40.4391408,305.557143 C24.9137828,277.747885 17.2446301,251.977973 15,220.460814 L221.505967,206 Z" id="Shape" fill="#C850AD"></path>
                                <path d="M220.494033,211 L140.965926,381.345406 C103.410987,363.852309 76.0519586,338.376924 56,302.201878 L220.494033,211 Z" id="Shape-Copy" fill="#965EDE"></path>
                                <g id="Shape-Copy-2">
                                    <use fill="#FFFFFF" fill-rule="evenodd" xlink:href="#path-2"></use>
                                    <use fill-opacity="0.9" fill="url(#linearGradient-1)" fill-rule="evenodd" xlink:href="#path-2"></use>
                                </g>
                            </g>
                        </g>
                        <g id="Oval-6">
                            <use fill="#FFFFFF" fill-rule="evenodd" xlink:href="#path-3"></use>
                            <circle stroke="#FFFFFF" stroke-width="26" cx="210" cy="210" r="110"></circle>
                        </g>
                        <g id="Group-2" transform="translate(107.000000, 120.000000)">
                            <path d="M1.568,120.776 L1.568,109.576 L23.968,56.6 L37.408,56.6 L37.408,109.576 L43.232,109.576 L43.232,120.776 L37.408,120.776 L37.408,135 L25.312,135 L25.312,120.776 L1.568,120.776 Z M12.88,109.576 L25.312,109.576 L25.312,80.12 L12.88,109.576 Z M60.144,74.632 L60.144,116.968 C60.144,122.568 62.608,124.696 66.528,124.696 C70.448,124.696 72.912,122.568 72.912,116.968 L72.912,74.632 C72.912,69.032 70.448,66.904 66.528,66.904 C62.608,66.904 60.144,69.032 60.144,74.632 Z M47.824,116.184 L47.824,75.416 C47.824,62.872 54.432,55.704 66.528,55.704 C78.624,55.704 85.232,62.872 85.232,75.416 L85.232,116.184 C85.232,128.728 78.624,135.896 66.528,135.896 C54.432,135.896 47.824,128.728 47.824,116.184 Z" id="40-copy" fill-opacity="0.940330616" fill="#000000"></path>
                            <path d="M98.46,56 L100.89,70.91 L103.14,56 L107.73,56 L107.73,77 L104.61,77 L104.61,61.94 L102.33,77 L99.21,77 L96.75,62.15 L96.75,77 L93.87,77 L93.87,56 L98.46,56 Z M116.28,67.37 L113.52,77 L110.13,77 L110.13,56 L113.07,56 L113.07,69.29 L114.27,64.67 L116.97,56 L120.6,56 L120.6,77 L117.63,77 L117.63,62.21 L116.28,67.37 Z M122.01,77.03 L122.01,74.03 C123.51,74.03 123.99,73.82 124.05,71.87 L124.59,56 L133.92,56 L133.92,77 L130.56,77 L130.56,59 L127.68,59 L127.32,71.69 C127.2,75.53 125.82,77.03 122.52,77.03 L122.01,77.03 Z M135.51,77.03 L135.51,74.03 C137.01,74.03 137.49,73.82 137.55,71.87 L138.09,56 L147.42,56 L147.42,77 L144.06,77 L144.06,59 L141.18,59 L140.82,71.69 C140.7,75.53 139.32,77.03 136.02,77.03 L135.51,77.03 Z M156.09,67.37 L153.33,77 L149.94,77 L149.94,56 L152.88,56 L152.88,69.29 L154.08,64.67 L156.78,56 L160.41,56 L160.41,77 L157.44,77 L157.44,62.21 L156.09,67.37 Z M165.78,60.83 L165.78,72.17 C165.78,73.67 166.44,74.24 167.49,74.24 C168.54,74.24 169.2,73.67 169.2,72.17 L169.2,60.83 C169.2,59.33 168.54,58.76 167.49,58.76 C166.44,58.76 165.78,59.33 165.78,60.83 Z M162.48,71.96 L162.48,61.04 C162.48,57.68 164.25,55.76 167.49,55.76 C170.73,55.76 172.5,57.68 172.5,61.04 L172.5,71.96 C172.5,75.32 170.73,77.24 167.49,77.24 C164.25,77.24 162.48,75.32 162.48,71.96 Z M177.93,68 L177.93,77 L174.63,77 L174.63,56 L177.93,56 L177.93,65 L181.68,65 L181.68,56 L185.04,56 L185.04,77 L181.68,77 L181.68,68 L177.93,68 Z M190.47,60.83 L190.47,72.17 C190.47,73.67 191.13,74.24 192.18,74.24 C193.23,74.24 193.89,73.67 193.89,72.17 L193.89,60.83 C193.89,59.33 193.23,58.76 192.18,58.76 C191.13,58.76 190.47,59.33 190.47,60.83 Z M187.17,71.96 L187.17,61.04 C187.17,57.68 188.94,55.76 192.18,55.76 C195.42,55.76 197.19,57.68 197.19,61.04 L197.19,71.96 C197.19,75.32 195.42,77.24 192.18,77.24 C188.94,77.24 187.17,75.32 187.17,71.96 Z M204.3,56 C207.72,56 209.19,57.59 209.19,60.83 L209.19,61.58 C209.19,63.74 208.53,65.12 207.06,65.81 C208.83,66.5 209.52,68.09 209.52,70.31 L209.52,72.02 C209.52,75.26 207.81,77 204.51,77 L199.32,77 L199.32,56 L204.3,56 Z M204.09,67.55 L202.62,67.55 L202.62,74 L204.51,74 C205.62,74 206.22,73.49 206.22,71.93 L206.22,70.1 C206.22,68.15 205.59,67.55 204.09,67.55 Z M204.21,59 L202.62,59 L202.62,64.55 L203.91,64.55 C205.14,64.55 205.89,64.01 205.89,62.33 L205.89,61.16 C205.89,59.66 205.38,59 204.21,59 Z" id="миллионов" fill-opacity="0.940330616" fill="#000000"></path>
                            <path d="M93.295,87 L93.295,84 L103.495,84 L103.495,87 L100.045,87 L100.045,105 L96.745,105 L96.745,87 L93.295,87 Z M107.965,88.83 L107.965,100.17 C107.965,101.67 108.625,102.24 109.675,102.24 C110.725,102.24 111.385,101.67 111.385,100.17 L111.385,88.83 C111.385,87.33 110.725,86.76 109.675,86.76 C108.625,86.76 107.965,87.33 107.965,88.83 Z M104.665,99.96 L104.665,89.04 C104.665,85.68 106.435,83.76 109.675,83.76 C112.915,83.76 114.685,85.68 114.685,89.04 L114.685,99.96 C114.685,103.32 112.915,105.24 109.675,105.24 C106.435,105.24 104.665,103.32 104.665,99.96 Z M124.345,105 L121.135,96.63 L120.115,98.55 L120.115,105 L116.815,105 L116.815,84 L120.115,84 L120.115,93.15 L124.435,84 L127.735,84 L123.145,93.36 L127.735,105 L124.345,105 Z M132.535,87 L132.535,92.85 L137.065,92.85 L137.065,95.85 L132.535,95.85 L132.535,102 L138.235,102 L138.235,105 L129.235,105 L129.235,84 L138.235,84 L138.235,87 L132.535,87 Z M143.575,96 L143.575,105 L140.275,105 L140.275,84 L143.575,84 L143.575,93 L147.325,93 L147.325,84 L150.685,84 L150.685,105 L147.325,105 L147.325,96 L143.575,96 Z M156.115,88.83 L156.115,100.17 C156.115,101.67 156.775,102.24 157.825,102.24 C158.875,102.24 159.535,101.67 159.535,100.17 L159.535,88.83 C159.535,87.33 158.875,86.76 157.825,86.76 C156.775,86.76 156.115,87.33 156.115,88.83 Z M152.815,99.96 L152.815,89.04 C152.815,85.68 154.585,83.76 157.825,83.76 C161.065,83.76 162.835,85.68 162.835,89.04 L162.835,99.96 C162.835,103.32 161.065,105.24 157.825,105.24 C154.585,105.24 152.815,103.32 152.815,99.96 Z M169.945,84 C173.365,84 174.835,85.59 174.835,88.83 L174.835,89.58 C174.835,91.74 174.175,93.12 172.705,93.81 C174.475,94.5 175.165,96.09 175.165,98.31 L175.165,100.02 C175.165,103.26 173.455,105 170.155,105 L164.965,105 L164.965,84 L169.945,84 Z M169.735,95.55 L168.265,95.55 L168.265,102 L170.155,102 C171.265,102 171.865,101.49 171.865,99.93 L171.865,98.1 C171.865,96.15 171.235,95.55 169.735,95.55 Z M169.855,87 L168.265,87 L168.265,92.55 L169.555,92.55 C170.785,92.55 171.535,92.01 171.535,90.33 L171.535,89.16 C171.535,87.66 171.025,87 169.855,87 Z" id="ТОкенов" fill-opacity="0.940330616" fill="#000000"></path>
                            <path d="M83.372,17 L83.372,5.8 L88.14,5.8 C89.42,5.8 90.444,6.152 91.068,6.792 C91.532,7.272 91.788,7.864 91.788,8.616 C91.788,10.072 90.892,10.824 90.012,11.208 C91.34,11.608 92.412,12.376 92.412,13.944 C92.412,15.864 90.796,17 88.348,17 L83.372,17 Z M84.62,15.864 L88.38,15.864 C90.076,15.864 91.132,15.112 91.132,13.832 C91.132,12.616 90.108,11.912 88.156,11.912 L84.62,11.912 L84.62,15.864 Z M84.62,10.792 L87.932,10.792 C89.452,10.792 90.508,10.104 90.508,8.76 C90.508,7.656 89.628,6.936 88.028,6.936 L84.62,6.936 L84.62,10.792 Z M98.444,17.192 C96.028,17.192 94.204,15.224 94.204,12.872 C94.204,10.536 96.028,8.552 98.444,8.552 C100.012,8.552 100.988,9.208 101.756,10.024 L100.972,10.856 C100.316,10.168 99.548,9.64 98.428,9.64 C96.748,9.64 95.468,11.064 95.468,12.872 C95.468,14.664 96.78,16.088 98.508,16.088 C99.564,16.088 100.348,15.544 101.004,14.84 L101.82,15.592 C100.988,16.52 99.996,17.192 98.444,17.192 Z M107.468,17.192 C105.196,17.192 103.34,15.448 103.34,12.872 C103.34,10.472 105.02,8.552 107.308,8.552 C109.756,8.552 111.164,10.504 111.164,12.936 C111.164,13.048 111.164,13.176 111.148,13.368 L104.588,13.368 C104.764,15.112 106.044,16.12 107.5,16.12 C108.636,16.12 109.436,15.656 110.108,14.952 L110.876,15.64 C110.044,16.568 109.036,17.192 107.468,17.192 Z M104.588,12.376 L109.916,12.376 C109.772,10.872 108.908,9.592 107.276,9.592 C105.852,9.592 104.764,10.776 104.588,12.376 Z M113.324,17 L113.324,8.728 L118.94,8.728 L118.94,9.816 L114.556,9.816 L114.556,17 L113.324,17 Z M124.028,17.192 C121.548,17.192 119.74,15.24 119.74,12.872 C119.74,10.536 121.564,8.552 124.06,8.552 C126.54,8.552 128.364,10.504 128.364,12.872 C128.364,15.208 126.524,17.192 124.028,17.192 Z M124.06,16.088 C125.852,16.088 127.1,14.648 127.1,12.872 C127.1,11.096 125.772,9.64 124.028,9.64 C122.236,9.64 121.004,11.096 121.004,12.872 C121.004,14.648 122.316,16.088 124.06,16.088 Z M42.676,39.192 C40.164,39.192 38.484,37.416 38.484,34.536 C38.484,31.864 38.692,29.304 41.572,28.616 L46.18,27.528 L46.42,28.568 L41.94,29.672 C40.228,30.104 39.652,31.032 39.524,32.616 C40.1,31.64 41.188,30.824 42.948,30.824 C45.108,30.824 46.916,32.664 46.916,34.936 C46.916,37.24 45.124,39.192 42.676,39.192 Z M42.708,38.088 C44.42,38.088 45.636,36.696 45.636,34.968 C45.636,33.24 44.34,31.848 42.676,31.848 C40.964,31.848 39.748,33.24 39.748,34.968 C39.748,36.696 41.044,38.088 42.708,38.088 Z M50.1,41.608 C49.412,41.608 48.9,41.464 48.34,41.192 L48.756,40.216 C49.156,40.424 49.524,40.52 50.052,40.52 C50.788,40.52 51.252,40.136 51.748,38.968 L47.988,30.728 L49.348,30.728 L52.356,37.624 L55.012,30.728 L56.324,30.728 L52.852,39.272 C52.148,40.984 51.348,41.608 50.1,41.608 Z M56.74,41.064 L56.74,37.912 L57.636,37.912 C58.308,36.68 58.74,34.952 58.74,32.168 L58.74,30.728 L64.628,30.728 L64.628,37.912 L65.876,37.912 L65.684,41.064 L64.66,41.064 L64.66,39 L57.972,39 L57.748,41.064 L56.74,41.064 Z M58.948,37.912 L63.396,37.912 L63.396,31.816 L59.924,31.816 L59.924,32.968 C59.924,35.016 59.524,36.84 58.948,37.912 Z M71.188,39.192 C68.916,39.192 67.06,37.448 67.06,34.872 C67.06,32.472 68.74,30.552 71.028,30.552 C73.476,30.552 74.884,32.504 74.884,34.936 C74.884,35.048 74.884,35.176 74.868,35.368 L68.308,35.368 C68.484,37.112 69.764,38.12 71.22,38.12 C72.356,38.12 73.156,37.656 73.828,36.952 L74.596,37.64 C73.764,38.568 72.756,39.192 71.188,39.192 Z M68.308,34.376 L73.636,34.376 C73.492,32.872 72.628,31.592 70.996,31.592 C69.572,31.592 68.484,32.776 68.308,34.376 Z M78.724,39 L78.724,31.816 L75.764,31.816 L75.764,30.728 L82.932,30.728 L82.932,31.816 L79.972,31.816 L79.972,39 L78.724,39 Z M89.524,39 L89.524,30.728 L93.524,30.728 C95.172,30.728 96.228,31.544 96.228,32.792 C96.228,33.88 95.54,34.408 94.852,34.696 C95.844,34.968 96.676,35.576 96.676,36.744 C96.676,38.136 95.492,39 93.668,39 L89.524,39 Z M90.756,37.944 L93.508,37.944 C94.692,37.944 95.412,37.416 95.412,36.552 C95.412,35.752 94.692,35.272 93.348,35.272 L90.756,35.272 L90.756,37.944 Z M90.756,34.28 L93.3,34.28 C94.292,34.28 94.98,33.816 94.98,32.952 C94.98,32.264 94.404,31.784 93.332,31.784 L90.756,31.784 L90.756,34.28 Z M98.9,39 L98.9,30.728 L100.132,30.728 L100.132,33.832 L102.34,33.832 C104.132,33.832 105.604,34.568 105.604,36.312 C105.604,37.96 104.372,39 102.484,39 L98.9,39 Z M100.132,37.912 L102.372,37.912 C103.604,37.912 104.356,37.384 104.356,36.344 C104.356,35.384 103.588,34.888 102.324,34.888 L100.132,34.888 L100.132,37.912 Z M107.092,39 L107.092,30.728 L108.324,30.728 L108.324,39 L107.092,39 Z M111.076,39 L111.076,30.728 L118.244,30.728 L118.244,39 L117.012,39 L117.012,31.816 L112.308,31.816 L112.308,39 L111.076,39 Z M122.276,41.608 C121.588,41.608 121.076,41.464 120.516,41.192 L120.932,40.216 C121.332,40.424 121.7,40.52 122.228,40.52 C122.964,40.52 123.428,40.136 123.924,38.968 L120.164,30.728 L121.524,30.728 L124.532,37.624 L127.188,30.728 L128.5,30.728 L125.028,39.272 C124.324,40.984 123.524,41.608 122.276,41.608 Z M142.26,41.064 L142.26,39 L130.452,39 L130.452,30.728 L131.684,30.728 L131.684,37.912 L135.716,37.912 L135.716,30.728 L136.948,30.728 L136.948,37.912 L140.98,37.912 L140.98,30.728 L142.228,30.728 L142.228,37.912 L143.476,37.912 L143.284,41.064 L142.26,41.064 Z M148.788,39.192 C146.516,39.192 144.66,37.448 144.66,34.872 C144.66,32.472 146.34,30.552 148.628,30.552 C151.076,30.552 152.484,32.504 152.484,34.936 C152.484,35.048 152.484,35.176 152.468,35.368 L145.908,35.368 C146.084,37.112 147.364,38.12 148.82,38.12 C149.956,38.12 150.756,37.656 151.428,36.952 L152.196,37.64 C151.364,38.568 150.356,39.192 148.788,39.192 Z M145.908,34.376 L151.236,34.376 C151.092,32.872 150.228,31.592 148.596,31.592 C147.172,31.592 146.084,32.776 145.908,34.376 Z M154.644,39 L154.644,30.728 L155.876,30.728 L155.876,34.296 L160.644,34.296 L160.644,30.728 L161.876,30.728 L161.876,39 L160.644,39 L160.644,35.384 L155.876,35.384 L155.876,39 L154.644,39 Z M168.404,39.192 C165.924,39.192 164.116,37.24 164.116,34.872 C164.116,32.536 165.94,30.552 168.436,30.552 C170.916,30.552 172.74,32.504 172.74,34.872 C172.74,37.208 170.9,39.192 168.404,39.192 Z M168.436,38.088 C170.228,38.088 171.476,36.648 171.476,34.872 C171.476,33.096 170.148,31.64 168.404,31.64 C166.612,31.64 165.38,33.096 165.38,34.872 C165.38,36.648 166.692,38.088 168.436,38.088 Z" id="Всего-будет-выпущено" fill="#333333"></path>
                        </g>
                    </g>
                    <g id="Lines" transform="translate(217.000000, 67.000000)" stroke="#333333" stroke-linecap="square">
                        <path d="M0.5,145.5 L97.5,145.5" id="Line"></path>
                        <path d="M411.5,1.5 L603.627562,1.5" id="Line-Copy"></path>
                        <path d="M481.5,89.5 L603.627562,89.5" id="Line-Copy-5"></path>
                        <path d="M487.461256,193.5 L603.627562,193.5" id="Line-Copy-6"></path>
                        <path d="M382.490956,289.5 L603.627562,289.5" id="Line-Copy-8"></path>
                        <path d="M501.480419,145.5 L603.627562,145.5" id="Line-Copy-7"></path>
                    </g>
                    <g id="Texts" transform="translate(0.000000, 41.000000)">
                        <path d="M841.752,8.504 L841.752,5.072 C845.492,5.072 846.328,3.268 847.076,1.2 L850.332,1.2 L850.332,32 L845.492,32 L845.492,8.504 L841.752,8.504 Z M860.628,8.284 L860.628,24.916 C860.628,27.116 861.596,27.952 863.136,27.952 C864.676,27.952 865.644,27.116 865.644,24.916 L865.644,8.284 C865.644,6.084 864.676,5.248 863.136,5.248 C861.596,5.248 860.628,6.084 860.628,8.284 Z M855.788,24.608 L855.788,8.592 C855.788,3.664 858.384,0.848 863.136,0.848 C867.888,0.848 870.484,3.664 870.484,8.592 L870.484,24.608 C870.484,29.536 867.888,32.352 863.136,32.352 C858.384,32.352 855.788,29.536 855.788,24.608 Z M876.424,5.688 L876.424,16.248 C876.424,17.612 876.996,18.184 878.008,18.184 C878.976,18.184 879.592,17.612 879.592,16.248 L879.592,5.688 C879.592,4.324 878.976,3.752 878.008,3.752 C876.996,3.752 876.424,4.324 876.424,5.688 Z M873.344,16.028 L873.344,5.908 C873.344,2.74 874.972,0.98 878.008,0.98 C881.044,0.98 882.672,2.74 882.672,5.908 L882.672,16.028 C882.672,19.196 881.044,20.956 878.008,20.956 C874.972,20.956 873.344,19.196 873.344,16.028 Z M878.008,32 L890.152,1.2 L893.012,1.2 L880.868,32 L878.008,32 Z M891.692,16.952 L891.692,27.512 C891.692,28.876 892.264,29.448 893.276,29.448 C894.244,29.448 894.86,28.876 894.86,27.512 L894.86,16.952 C894.86,15.588 894.244,15.016 893.276,15.016 C892.264,15.016 891.692,15.588 891.692,16.952 Z M888.612,27.292 L888.612,17.172 C888.612,14.004 890.24,12.244 893.276,12.244 C896.312,12.244 897.94,14.004 897.94,17.172 L897.94,27.292 C897.94,30.46 896.312,32.22 893.276,32.22 C890.24,32.22 888.612,30.46 888.612,27.292 Z" id="10%" fill="#965EDE"></path>
                        <path d="M848.088,154.484 L848.088,152.768 C848.088,149.996 847.12,149.248 845.58,149.248 C844.04,149.248 843.072,150.084 843.072,152.284 L843.072,154.264 L838.496,154.264 L838.496,152.592 C838.496,147.664 840.96,144.848 845.712,144.848 C850.464,144.848 852.928,147.664 852.928,152.592 L852.928,153.384 C852.928,156.684 851.872,158.752 849.54,159.72 C851.96,160.776 852.928,163.064 852.928,166.188 L852.928,168.608 C852.928,173.536 850.464,176.352 845.712,176.352 C840.96,176.352 838.496,173.536 838.496,168.608 L838.496,166.056 L843.072,166.056 L843.072,168.916 C843.072,171.116 844.04,171.952 845.58,171.952 C847.12,171.952 848.088,171.204 848.088,168.476 L848.088,166.056 C848.088,163.196 847.12,162.14 844.92,162.14 L843.292,162.14 L843.292,157.74 L845.184,157.74 C846.988,157.74 848.088,156.948 848.088,154.484 Z M859,149.688 L859,160.248 C859,161.612 859.572,162.184 860.584,162.184 C861.552,162.184 862.168,161.612 862.168,160.248 L862.168,149.688 C862.168,148.324 861.552,147.752 860.584,147.752 C859.572,147.752 859,148.324 859,149.688 Z M855.92,160.028 L855.92,149.908 C855.92,146.74 857.548,144.98 860.584,144.98 C863.62,144.98 865.248,146.74 865.248,149.908 L865.248,160.028 C865.248,163.196 863.62,164.956 860.584,164.956 C857.548,164.956 855.92,163.196 855.92,160.028 Z M860.584,176 L872.728,145.2 L875.588,145.2 L863.444,176 L860.584,176 Z M874.268,160.952 L874.268,171.512 C874.268,172.876 874.84,173.448 875.852,173.448 C876.82,173.448 877.436,172.876 877.436,171.512 L877.436,160.952 C877.436,159.588 876.82,159.016 875.852,159.016 C874.84,159.016 874.268,159.588 874.268,160.952 Z M871.188,171.292 L871.188,161.172 C871.188,158.004 872.816,156.244 875.852,156.244 C878.888,156.244 880.516,158.004 880.516,161.172 L880.516,171.292 C880.516,174.46 878.888,176.22 875.852,176.22 C872.816,176.22 871.188,174.46 871.188,171.292 Z" id="3%" fill="#E53544"></path>
                        <path d="M848.352,296.768 C848.352,293.996 847.384,293.248 845.844,293.248 C844.304,293.248 843.336,294.084 843.336,296.284 L843.336,299.584 L838.76,299.584 L838.76,296.592 C838.76,291.664 841.224,288.848 845.976,288.848 C850.728,288.848 853.192,291.664 853.192,296.592 C853.192,306.272 843.556,309.88 843.556,314.94 C843.556,315.16 843.556,315.38 843.6,315.6 L852.752,315.6 L852.752,320 L838.76,320 L838.76,316.216 C838.76,307.152 848.352,305.656 848.352,296.768 Z M860.628,296.284 L860.628,312.916 C860.628,315.116 861.596,315.952 863.136,315.952 C864.676,315.952 865.644,315.116 865.644,312.916 L865.644,296.284 C865.644,294.084 864.676,293.248 863.136,293.248 C861.596,293.248 860.628,294.084 860.628,296.284 Z M855.788,312.608 L855.788,296.592 C855.788,291.664 858.384,288.848 863.136,288.848 C867.888,288.848 870.484,291.664 870.484,296.592 L870.484,312.608 C870.484,317.536 867.888,320.352 863.136,320.352 C858.384,320.352 855.788,317.536 855.788,312.608 Z M876.424,293.688 L876.424,304.248 C876.424,305.612 876.996,306.184 878.008,306.184 C878.976,306.184 879.592,305.612 879.592,304.248 L879.592,293.688 C879.592,292.324 878.976,291.752 878.008,291.752 C876.996,291.752 876.424,292.324 876.424,293.688 Z M873.344,304.028 L873.344,293.908 C873.344,290.74 874.972,288.98 878.008,288.98 C881.044,288.98 882.672,290.74 882.672,293.908 L882.672,304.028 C882.672,307.196 881.044,308.956 878.008,308.956 C874.972,308.956 873.344,307.196 873.344,304.028 Z M878.008,320 L890.152,289.2 L893.012,289.2 L880.868,320 L878.008,320 Z M891.692,304.952 L891.692,315.512 C891.692,316.876 892.264,317.448 893.276,317.448 C894.244,317.448 894.86,316.876 894.86,315.512 L894.86,304.952 C894.86,303.588 894.244,303.016 893.276,303.016 C892.264,303.016 891.692,303.588 891.692,304.952 Z M888.612,315.292 L888.612,305.172 C888.612,302.004 890.24,300.244 893.276,300.244 C896.312,300.244 897.94,302.004 897.94,305.172 L897.94,315.292 C897.94,318.46 896.312,320.22 893.276,320.22 C890.24,320.22 888.612,318.46 888.612,315.292 Z" id="20%" fill="#A1B0B7" opacity="0.572916667"></path>
                        <path d="M838.452,89.2 L852.972,89.2 L852.972,93.424 L845.844,120 L841.004,120 L848.088,93.6 L838.452,93.6 L838.452,89.2 Z M859,93.688 L859,104.248 C859,105.612 859.572,106.184 860.584,106.184 C861.552,106.184 862.168,105.612 862.168,104.248 L862.168,93.688 C862.168,92.324 861.552,91.752 860.584,91.752 C859.572,91.752 859,92.324 859,93.688 Z M855.92,104.028 L855.92,93.908 C855.92,90.74 857.548,88.98 860.584,88.98 C863.62,88.98 865.248,90.74 865.248,93.908 L865.248,104.028 C865.248,107.196 863.62,108.956 860.584,108.956 C857.548,108.956 855.92,107.196 855.92,104.028 Z M860.584,120 L872.728,89.2 L875.588,89.2 L863.444,120 L860.584,120 Z M874.268,104.952 L874.268,115.512 C874.268,116.876 874.84,117.448 875.852,117.448 C876.82,117.448 877.436,116.876 877.436,115.512 L877.436,104.952 C877.436,103.588 876.82,103.016 875.852,103.016 C874.84,103.016 874.268,103.588 874.268,104.952 Z M871.188,115.292 L871.188,105.172 C871.188,102.004 872.816,100.244 875.852,100.244 C878.888,100.244 880.516,102.004 880.516,105.172 L880.516,115.292 C880.516,118.46 878.888,120.22 875.852,120.22 C872.816,120.22 871.188,118.46 871.188,115.292 Z" id="7%" fill="#C850AD"></path>
                        <path d="M848.088,202.484 L848.088,200.768 C848.088,197.996 847.12,197.248 845.58,197.248 C844.04,197.248 843.072,198.084 843.072,200.284 L843.072,202.264 L838.496,202.264 L838.496,200.592 C838.496,195.664 840.96,192.848 845.712,192.848 C850.464,192.848 852.928,195.664 852.928,200.592 L852.928,201.384 C852.928,204.684 851.872,206.752 849.54,207.72 C851.96,208.776 852.928,211.064 852.928,214.188 L852.928,216.608 C852.928,221.536 850.464,224.352 845.712,224.352 C840.96,224.352 838.496,221.536 838.496,216.608 L838.496,214.056 L843.072,214.056 L843.072,216.916 C843.072,219.116 844.04,219.952 845.58,219.952 C847.12,219.952 848.088,219.204 848.088,216.476 L848.088,214.056 C848.088,211.196 847.12,210.14 844.92,210.14 L843.292,210.14 L843.292,205.74 L845.184,205.74 C846.988,205.74 848.088,204.948 848.088,202.484 Z M859,197.688 L859,208.248 C859,209.612 859.572,210.184 860.584,210.184 C861.552,210.184 862.168,209.612 862.168,208.248 L862.168,197.688 C862.168,196.324 861.552,195.752 860.584,195.752 C859.572,195.752 859,196.324 859,197.688 Z M855.92,208.028 L855.92,197.908 C855.92,194.74 857.548,192.98 860.584,192.98 C863.62,192.98 865.248,194.74 865.248,197.908 L865.248,208.028 C865.248,211.196 863.62,212.956 860.584,212.956 C857.548,212.956 855.92,211.196 855.92,208.028 Z M860.584,224 L872.728,193.2 L875.588,193.2 L863.444,224 L860.584,224 Z M874.268,208.952 L874.268,219.512 C874.268,220.876 874.84,221.448 875.852,221.448 C876.82,221.448 877.436,220.876 877.436,219.512 L877.436,208.952 C877.436,207.588 876.82,207.016 875.852,207.016 C874.84,207.016 874.268,207.588 874.268,208.952 Z M871.188,219.292 L871.188,209.172 C871.188,206.004 872.816,204.244 875.852,204.244 C878.888,204.244 880.516,206.004 880.516,209.172 L880.516,219.292 C880.516,222.46 878.888,224.22 875.852,224.22 C872.816,224.22 871.188,222.46 871.188,219.292 Z" id="3%" fill="#FC9C04"></path>
                        <path d="M4.752,112.2 L52.272,112.2 L52.272,126.024 L28.944,213 L13.104,213 L36.288,126.6 L4.752,126.6 L4.752,112.2 Z M62.064,180.456 L77.04,180.456 L77.04,189.816 C77.04,197.016 80.208,199.608 85.248,199.608 C90.288,199.608 93.456,197.016 93.456,189.816 L93.456,167.64 C93.456,160.44 90.288,157.704 85.248,157.704 C80.208,157.704 77.04,160.44 77.04,167.64 L77.04,170.664 L62.064,170.664 L64.944,112.2 L106.704,112.2 L106.704,126.6 L79.2,126.6 L77.904,150.648 C80.784,145.896 85.392,143.304 91.728,143.304 C103.392,143.304 109.296,151.512 109.296,166.344 L109.296,188.808 C109.296,204.936 101.232,214.152 85.68,214.152 C70.128,214.152 62.064,204.936 62.064,188.808 L62.064,180.456 Z M129.024,126.888 L129.024,161.448 C129.024,165.912 130.896,167.784 134.208,167.784 C137.376,167.784 139.392,165.912 139.392,161.448 L139.392,126.888 C139.392,122.424 137.376,120.552 134.208,120.552 C130.896,120.552 129.024,122.424 129.024,126.888 Z M118.944,160.728 L118.944,127.608 C118.944,117.24 124.272,111.48 134.208,111.48 C144.144,111.48 149.472,117.24 149.472,127.608 L149.472,160.728 C149.472,171.096 144.144,176.856 134.208,176.856 C124.272,176.856 118.944,171.096 118.944,160.728 Z M134.208,213 L173.952,112.2 L183.312,112.2 L143.568,213 L134.208,213 Z M178.992,163.752 L178.992,198.312 C178.992,202.776 180.864,204.648 184.176,204.648 C187.344,204.648 189.36,202.776 189.36,198.312 L189.36,163.752 C189.36,159.288 187.344,157.416 184.176,157.416 C180.864,157.416 178.992,159.288 178.992,163.752 Z M168.912,197.592 L168.912,164.472 C168.912,154.104 174.24,148.344 184.176,148.344 C194.112,148.344 199.44,154.104 199.44,164.472 L199.44,197.592 C199.44,207.96 194.112,213.72 184.176,213.72 C174.24,213.72 168.912,207.96 168.912,197.592 Z" id="75%-copy" fill-opacity="0.940330616" fill="#000000"></path>
                        <path d="M16.632,238.2 L16.632,267 L11.352,267 L11.352,233.4 L28.008,233.4 L28.008,267 L22.632,267 L22.632,238.2 L16.632,238.2 Z M39.624,233.4 C44.904,233.4 47.496,236.328 47.496,241.704 L47.496,246.072 C47.496,251.448 44.904,254.376 39.624,254.376 L37.128,254.376 L37.128,267 L31.848,267 L31.848,233.4 L39.624,233.4 Z M39.624,238.2 L37.128,238.2 L37.128,249.576 L39.624,249.576 C41.304,249.576 42.216,248.808 42.216,246.408 L42.216,241.368 C42.216,238.968 41.304,238.2 39.624,238.2 Z M54.792,241.128 L54.792,259.272 C54.792,261.672 55.848,262.584 57.528,262.584 C59.208,262.584 60.264,261.672 60.264,259.272 L60.264,241.128 C60.264,238.728 59.208,237.816 57.528,237.816 C55.848,237.816 54.792,238.728 54.792,241.128 Z M49.512,258.936 L49.512,241.464 C49.512,236.088 52.344,233.016 57.528,233.016 C62.712,233.016 65.544,236.088 65.544,241.464 L65.544,258.936 C65.544,264.312 62.712,267.384 57.528,267.384 C52.344,267.384 49.512,264.312 49.512,258.936 Z M89.448,271.512 L84.216,271.512 L84.216,267 L72.936,267 L72.936,271.512 L67.8,271.512 L67.8,262.296 L69.864,262.296 C70.776,261.144 71.064,259.896 71.16,257.928 L72.36,233.4 L87.144,233.4 L87.144,262.296 L89.448,262.296 L89.448,271.512 Z M77.304,238.2 L76.344,257.832 C76.2,260.376 75.72,261.48 74.856,262.296 L81.768,262.296 L81.768,238.2 L77.304,238.2 Z M104.088,233.4 L109.464,267 L104.136,267 L103.224,260.904 L96.744,260.904 L95.832,267 L90.984,267 L96.36,233.4 L104.088,233.4 Z M99.96,239.352 L97.416,256.344 L102.504,256.344 L99.96,239.352 Z M117.192,238.2 L117.192,247.56 L124.44,247.56 L124.44,252.36 L117.192,252.36 L117.192,262.2 L126.312,262.2 L126.312,267 L111.912,267 L111.912,233.4 L126.312,233.4 L126.312,238.2 L117.192,238.2 Z M128.04,238.2 L128.04,233.4 L144.36,233.4 L144.36,238.2 L138.84,238.2 L138.84,267 L133.56,267 L133.56,238.2 L128.04,238.2 Z M156.984,254.472 L161.976,254.472 L161.976,258.936 C161.976,264.312 159.288,267.384 154.104,267.384 C148.92,267.384 146.232,264.312 146.232,258.936 L146.232,241.464 C146.232,236.088 148.92,233.016 154.104,233.016 C159.288,233.016 161.976,236.088 161.976,241.464 L161.976,244.728 L156.984,244.728 L156.984,241.128 C156.984,238.728 155.928,237.816 154.248,237.816 C152.568,237.816 151.512,238.728 151.512,241.128 L151.512,259.272 C151.512,261.672 152.568,262.536 154.248,262.536 C155.928,262.536 156.984,261.672 156.984,259.272 L156.984,254.472 Z M169.608,267 L164.232,267 C164.76,265.752 164.808,264.552 164.808,262.92 L164.808,257.736 C164.808,254.232 165.672,251.688 168.312,250.584 C165.96,249.48 164.856,247.224 164.856,243.768 L164.856,241.128 C164.856,235.944 167.208,233.4 172.68,233.4 L180.648,233.4 L180.648,267 L175.368,267 L175.368,253.32 L173.544,253.32 C171.144,253.32 170.088,254.472 170.088,257.592 L170.088,262.872 C170.088,265.608 169.896,266.136 169.608,267 Z M175.368,238.2 L172.824,238.2 C170.952,238.2 170.136,239.256 170.136,241.656 L170.136,244.968 C170.136,247.656 171.336,248.52 173.304,248.52 L175.368,248.52 L175.368,238.2 Z" id="Продается-Copy" fill-opacity="0.940330616" fill="#000000"></path>
                        <path d="M920.784,32.192 C917.376,32.192 915.088,29.52 915.088,26.4 C915.088,23.312 917.408,20.608 920.816,20.608 C924.224,20.608 926.512,23.28 926.512,26.4 C926.512,29.488 924.192,32.192 920.784,32.192 Z M920.816,31.024 C923.376,31.024 925.2,28.976 925.2,26.4 C925.2,23.856 923.344,21.776 920.784,21.776 C918.224,21.776 916.4,23.824 916.4,26.4 C916.4,28.944 918.256,31.024 920.816,31.024 Z M928.976,32 L928.976,23.728 L936.144,23.728 L936.144,32 L934.912,32 L934.912,24.816 L930.208,24.816 L930.208,32 L928.976,32 Z M946.032,34.064 L946.032,32 L938.896,32 L938.896,23.728 L940.128,23.728 L940.128,30.912 L944.768,30.912 L944.768,23.728 L946,23.728 L946,30.912 L947.248,30.912 L947.056,34.064 L946.032,34.064 Z M948.944,32 L948.944,23.728 L950.176,23.728 L950.176,30.272 L955.088,23.728 L956.288,23.728 L956.288,32 L955.056,32 L955.056,25.456 L950.128,32 L948.944,32 Z M962.816,32.192 C960.336,32.192 958.528,30.24 958.528,27.872 C958.528,25.536 960.352,23.552 962.848,23.552 C965.328,23.552 967.152,25.504 967.152,27.872 C967.152,30.208 965.312,32.192 962.816,32.192 Z M962.848,31.088 C964.64,31.088 965.888,29.648 965.888,27.872 C965.888,26.096 964.56,24.64 962.816,24.64 C961.024,24.64 959.792,26.096 959.792,27.872 C959.792,29.648 961.104,31.088 962.848,31.088 Z M969.376,32 L969.376,23.728 L970.608,23.728 L970.608,27.296 L975.376,27.296 L975.376,23.728 L976.608,23.728 L976.608,32 L975.376,32 L975.376,28.384 L970.608,28.384 L970.608,32 L969.376,32 Z M984.16,32 L984.16,23.728 L985.392,23.728 L985.392,28.496 L989.92,23.728 L991.44,23.728 L987.984,27.312 L991.536,32 L990.08,32 L987.136,28.208 L985.392,30 L985.392,32 L984.16,32 Z M996.528,32.192 C994.048,32.192 992.24,30.24 992.24,27.872 C992.24,25.536 994.064,23.552 996.56,23.552 C999.04,23.552 1000.864,25.504 1000.864,27.872 C1000.864,30.208 999.024,32.192 996.528,32.192 Z M996.56,31.088 C998.352,31.088 999.6,29.648 999.6,27.872 C999.6,26.096 998.272,24.64 996.528,24.64 C994.736,24.64 993.504,26.096 993.504,27.872 C993.504,29.648 994.816,31.088 996.56,31.088 Z M1003.088,32 L1003.088,23.728 L1004.256,23.728 L1007.344,28.08 L1010.432,23.728 L1011.616,23.728 L1011.616,32 L1010.368,32 L1010.368,25.696 L1007.312,29.888 L1004.288,25.696 L1004.288,32 L1003.088,32 Z M1016.832,32.176 C1015.28,32.176 1013.744,31.296 1013.744,29.568 C1013.744,27.792 1015.184,26.864 1017.28,26.864 C1018.336,26.864 1019.072,27.008 1019.808,27.216 L1019.808,26.96 C1019.808,25.488 1018.912,24.72 1017.36,24.72 C1016.384,24.72 1015.616,24.96 1014.848,25.312 L1014.48,24.304 C1015.392,23.888 1016.272,23.6 1017.488,23.6 C1018.656,23.6 1019.568,23.92 1020.16,24.512 C1020.736,25.088 1021.024,25.888 1021.024,26.944 L1021.024,32 L1019.808,32 L1019.808,30.768 C1019.232,31.504 1018.288,32.176 1016.832,32.176 Z M1017.072,31.184 C1018.592,31.184 1019.824,30.272 1019.824,28.96 L1019.824,28.192 C1019.216,28.016 1018.416,27.84 1017.408,27.84 C1015.872,27.84 1014.992,28.512 1014.992,29.536 C1014.992,30.576 1015.952,31.184 1017.072,31.184 Z M1023.632,32 L1023.632,23.728 L1024.864,23.728 L1024.864,27.296 L1029.632,27.296 L1029.632,23.728 L1030.864,23.728 L1030.864,32 L1029.632,32 L1029.632,28.384 L1024.864,28.384 L1024.864,32 L1023.632,32 Z M1032.4,34.064 L1032.4,30.912 L1033.296,30.912 C1033.968,29.68 1034.4,27.952 1034.4,25.168 L1034.4,23.728 L1040.288,23.728 L1040.288,30.912 L1041.536,30.912 L1041.344,34.064 L1040.32,34.064 L1040.32,32 L1033.632,32 L1033.408,34.064 L1032.4,34.064 Z M1034.608,30.912 L1039.056,30.912 L1039.056,24.816 L1035.584,24.816 L1035.584,25.968 C1035.584,28.016 1035.184,29.84 1034.608,30.912 Z M1046.848,32.192 C1044.576,32.192 1042.72,30.448 1042.72,27.872 C1042.72,25.472 1044.4,23.552 1046.688,23.552 C1049.136,23.552 1050.544,25.504 1050.544,27.936 C1050.544,28.048 1050.544,28.176 1050.528,28.368 L1043.968,28.368 C1044.144,30.112 1045.424,31.12 1046.88,31.12 C1048.016,31.12 1048.816,30.656 1049.488,29.952 L1050.256,30.64 C1049.424,31.568 1048.416,32.192 1046.848,32.192 Z M1043.968,27.376 L1049.296,27.376 C1049.152,25.872 1048.288,24.592 1046.656,24.592 C1045.232,24.592 1044.144,25.776 1043.968,27.376 Z" id="Опцион-команде" fill="#333333"></path>
                        <path d="M915.584,120 L915.584,108.8 L919.776,108.8 C922.304,108.8 923.968,110.144 923.968,112.384 C923.968,114.8 921.952,116.048 919.568,116.048 L916.848,116.048 L916.848,120 L915.584,120 Z M916.848,114.896 L919.616,114.896 C921.472,114.896 922.688,113.904 922.688,112.4 C922.688,110.8 921.488,109.968 919.68,109.968 L916.848,109.968 L916.848,114.896 Z M928.528,120.176 C926.976,120.176 925.44,119.296 925.44,117.568 C925.44,115.792 926.88,114.864 928.976,114.864 C930.032,114.864 930.768,115.008 931.504,115.216 L931.504,114.96 C931.504,113.488 930.608,112.72 929.056,112.72 C928.08,112.72 927.312,112.96 926.544,113.312 L926.176,112.304 C927.088,111.888 927.968,111.6 929.184,111.6 C930.352,111.6 931.264,111.92 931.856,112.512 C932.432,113.088 932.72,113.888 932.72,114.944 L932.72,120 L931.504,120 L931.504,118.768 C930.928,119.504 929.984,120.176 928.528,120.176 Z M928.768,119.184 C930.288,119.184 931.52,118.272 931.52,116.96 L931.52,116.192 C930.912,116.016 930.112,115.84 929.104,115.84 C927.568,115.84 926.688,116.512 926.688,117.536 C926.688,118.576 927.648,119.184 928.768,119.184 Z M937.952,120.192 C936.64,120.192 935.536,119.776 934.528,118.96 L935.152,118.048 C935.984,118.752 936.928,119.12 937.92,119.12 C938.992,119.12 939.968,118.608 939.968,117.648 C939.968,116.816 939.232,116.288 937.888,116.288 L936.784,116.288 L936.784,115.28 L937.904,115.28 C938.992,115.28 939.744,114.72 939.744,113.856 C939.744,113.088 938.976,112.624 937.952,112.624 C937.136,112.624 936.16,112.88 935.44,113.456 L934.832,112.592 C935.696,111.92 936.816,111.552 938.032,111.552 C939.888,111.552 941.024,112.48 941.024,113.76 C941.024,114.784 940.4,115.376 939.696,115.664 C940.608,115.984 941.232,116.608 941.232,117.696 C941.232,119.024 940,120.192 937.952,120.192 Z M943.52,122.56 L943.52,111.728 L944.752,111.728 L944.752,113.392 C945.424,112.4 946.4,111.552 947.92,111.552 C949.904,111.552 951.872,113.12 951.872,115.872 C951.872,118.576 949.92,120.176 947.92,120.176 C946.384,120.176 945.392,119.344 944.752,118.416 L944.752,122.56 L943.52,122.56 Z M947.696,119.072 C949.296,119.072 950.608,117.888 950.608,115.856 C950.608,113.904 949.264,112.656 947.696,112.656 C946.16,112.656 944.704,113.952 944.704,115.872 C944.704,117.792 946.16,119.072 947.696,119.072 Z M956.608,120.176 C955.056,120.176 953.52,119.296 953.52,117.568 C953.52,115.792 954.96,114.864 957.056,114.864 C958.112,114.864 958.848,115.008 959.584,115.216 L959.584,114.96 C959.584,113.488 958.688,112.72 957.136,112.72 C956.16,112.72 955.392,112.96 954.624,113.312 L954.256,112.304 C955.168,111.888 956.048,111.6 957.264,111.6 C958.432,111.6 959.344,111.92 959.936,112.512 C960.512,113.088 960.8,113.888 960.8,114.944 L960.8,120 L959.584,120 L959.584,118.768 C959.008,119.504 958.064,120.176 956.608,120.176 Z M956.848,119.184 C958.368,119.184 959.6,118.272 959.6,116.96 L959.6,116.192 C958.992,116.016 958.192,115.84 957.184,115.84 C955.648,115.84 954.768,116.512 954.768,117.536 C954.768,118.576 955.728,119.184 956.848,119.184 Z M967.296,120.192 C964.784,120.192 963.104,118.416 963.104,115.536 C963.104,112.864 963.312,110.304 966.192,109.616 L970.8,108.528 L971.04,109.568 L966.56,110.672 C964.848,111.104 964.272,112.032 964.144,113.616 C964.72,112.64 965.808,111.824 967.568,111.824 C969.728,111.824 971.536,113.664 971.536,115.936 C971.536,118.24 969.744,120.192 967.296,120.192 Z M967.328,119.088 C969.04,119.088 970.256,117.696 970.256,115.968 C970.256,114.24 968.96,112.848 967.296,112.848 C965.584,112.848 964.368,114.24 964.368,115.968 C964.368,117.696 965.664,119.088 967.328,119.088 Z M977.536,120.192 C975.056,120.192 973.248,118.24 973.248,115.872 C973.248,113.536 975.072,111.552 977.568,111.552 C980.048,111.552 981.872,113.504 981.872,115.872 C981.872,118.208 980.032,120.192 977.536,120.192 Z M977.568,119.088 C979.36,119.088 980.608,117.648 980.608,115.872 C980.608,114.096 979.28,112.64 977.536,112.64 C975.744,112.64 974.512,114.096 974.512,115.872 C974.512,117.648 975.824,119.088 977.568,119.088 Z M985.776,120 L985.776,112.816 L982.816,112.816 L982.816,111.728 L989.984,111.728 L989.984,112.816 L987.024,112.816 L987.024,120 L985.776,120 Z M991.776,120 L991.776,111.728 L993.008,111.728 L993.008,116.496 L997.536,111.728 L999.056,111.728 L995.6,115.312 L999.152,120 L997.696,120 L994.752,116.208 L993.008,118 L993.008,120 L991.776,120 Z M1002.992,120.176 C1001.44,120.176 999.904,119.296 999.904,117.568 C999.904,115.792 1001.344,114.864 1003.44,114.864 C1004.496,114.864 1005.232,115.008 1005.968,115.216 L1005.968,114.96 C1005.968,113.488 1005.072,112.72 1003.52,112.72 C1002.544,112.72 1001.776,112.96 1001.008,113.312 L1000.64,112.304 C1001.552,111.888 1002.432,111.6 1003.648,111.6 C1004.816,111.6 1005.728,111.92 1006.32,112.512 C1006.896,113.088 1007.184,113.888 1007.184,114.944 L1007.184,120 L1005.968,120 L1005.968,118.768 C1005.392,119.504 1004.448,120.176 1002.992,120.176 Z M1003.232,119.184 C1004.752,119.184 1005.984,118.272 1005.984,116.96 L1005.984,116.192 C1005.376,116.016 1004.576,115.84 1003.568,115.84 C1002.032,115.84 1001.152,116.512 1001.152,117.536 C1001.152,118.576 1002.112,119.184 1003.232,119.184 Z" id="Разработка" fill="#333333"></path>
                        <path d="M920.704,176.192 C917.472,176.192 915.088,173.648 915.088,170.4 C915.088,167.232 917.456,164.608 920.752,164.608 C922.784,164.608 923.968,165.36 925.088,166.416 L924.256,167.312 C923.312,166.416 922.256,165.776 920.736,165.776 C918.256,165.776 916.4,167.792 916.4,170.4 C916.4,172.992 918.272,175.024 920.736,175.024 C922.272,175.024 923.28,174.432 924.352,173.408 L925.184,174.288 C924.016,175.472 922.736,176.192 920.704,176.192 Z M930.96,176.192 C928.48,176.192 926.672,174.24 926.672,171.872 C926.672,169.536 928.496,167.552 930.992,167.552 C933.472,167.552 935.296,169.504 935.296,171.872 C935.296,174.208 933.456,176.192 930.96,176.192 Z M930.992,175.088 C932.784,175.088 934.032,173.648 934.032,171.872 C934.032,170.096 932.704,168.64 930.96,168.64 C929.168,168.64 927.936,170.096 927.936,171.872 C927.936,173.648 929.248,175.088 930.992,175.088 Z M937.52,176 L937.52,167.728 L941.52,167.728 C943.168,167.728 944.224,168.544 944.224,169.792 C944.224,170.88 943.536,171.408 942.848,171.696 C943.84,171.968 944.672,172.576 944.672,173.744 C944.672,175.136 943.488,176 941.664,176 L937.52,176 Z M938.752,174.944 L941.504,174.944 C942.688,174.944 943.408,174.416 943.408,173.552 C943.408,172.752 942.688,172.272 941.344,172.272 L938.752,172.272 L938.752,174.944 Z M938.752,171.28 L941.296,171.28 C942.288,171.28 942.976,170.816 942.976,169.952 C942.976,169.264 942.4,168.784 941.328,168.784 L938.752,168.784 L938.752,171.28 Z M950.512,176.192 C948.24,176.192 946.384,174.448 946.384,171.872 C946.384,169.472 948.064,167.552 950.352,167.552 C952.8,167.552 954.208,169.504 954.208,171.936 C954.208,172.048 954.208,172.176 954.192,172.368 L947.632,172.368 C947.808,174.112 949.088,175.12 950.544,175.12 C951.68,175.12 952.48,174.656 953.152,173.952 L953.92,174.64 C953.088,175.568 952.08,176.192 950.512,176.192 Z M947.632,171.376 L952.96,171.376 C952.816,169.872 951.952,168.592 950.32,168.592 C948.896,168.592 947.808,169.776 947.632,171.376 Z M958.048,176 L958.048,168.816 L955.088,168.816 L955.088,167.728 L962.256,167.728 L962.256,168.816 L959.296,168.816 L959.296,176 L958.048,176 Z M964.048,176 L964.048,167.728 L965.28,167.728 L965.28,171.296 L970.048,171.296 L970.048,167.728 L971.28,167.728 L971.28,176 L970.048,176 L970.048,172.384 L965.28,172.384 L965.28,176 L964.048,176 Z M974.032,176 L974.032,167.728 L975.264,167.728 L975.264,174.272 L980.176,167.728 L981.376,167.728 L981.376,176 L980.144,176 L980.144,169.456 L975.216,176 L974.032,176 Z M984.128,176 L984.128,167.728 L985.36,167.728 L985.36,172.496 L989.888,167.728 L991.408,167.728 L987.952,171.312 L991.504,176 L990.048,176 L987.104,172.208 L985.36,174 L985.36,176 L984.128,176 Z M993.2,176 L993.2,167.728 L994.432,167.728 L994.432,174.272 L999.344,167.728 L1000.544,167.728 L1000.544,176 L999.312,176 L999.312,169.456 L994.384,176 L993.2,176 Z" id="Советники" fill="#333333"></path>
                        <path d="M915.584,224 L915.584,212.8 L923.616,212.8 L923.616,213.952 L916.848,213.952 L916.848,217.392 L920.16,217.392 C922.544,217.392 924.416,218.4 924.416,220.656 C924.416,222.848 922.784,224 920.288,224 L915.584,224 Z M916.848,222.848 L920.192,222.848 C922,222.848 923.152,222.208 923.152,220.592 C923.152,219.184 921.984,218.512 920.128,218.512 L916.848,218.512 L916.848,222.848 Z M929.168,224.176 C927.616,224.176 926.08,223.296 926.08,221.568 C926.08,219.792 927.52,218.864 929.616,218.864 C930.672,218.864 931.408,219.008 932.144,219.216 L932.144,218.96 C932.144,217.488 931.248,216.72 929.696,216.72 C928.72,216.72 927.952,216.96 927.184,217.312 L926.816,216.304 C927.728,215.888 928.608,215.6 929.824,215.6 C930.992,215.6 931.904,215.92 932.496,216.512 C933.072,217.088 933.36,217.888 933.36,218.944 L933.36,224 L932.144,224 L932.144,222.768 C931.568,223.504 930.624,224.176 929.168,224.176 Z M929.408,223.184 C930.928,223.184 932.16,222.272 932.16,220.96 L932.16,220.192 C931.552,220.016 930.752,219.84 929.744,219.84 C928.208,219.84 927.328,220.512 927.328,221.536 C927.328,222.576 928.288,223.184 929.408,223.184 Z M936.928,226.608 C936.24,226.608 935.728,226.464 935.168,226.192 L935.584,225.216 C935.984,225.424 936.352,225.52 936.88,225.52 C937.616,225.52 938.08,225.136 938.576,223.968 L934.816,215.728 L936.176,215.728 L939.184,222.624 L941.84,215.728 L943.152,215.728 L939.68,224.272 C938.976,225.984 938.176,226.608 936.928,226.608 Z M945.104,224 L945.104,215.728 L946.336,215.728 L946.336,219.296 L951.104,219.296 L951.104,215.728 L952.336,215.728 L952.336,224 L951.104,224 L951.104,220.384 L946.336,220.384 L946.336,224 L945.104,224 Z M957.088,224 L957.088,216.816 L954.128,216.816 L954.128,215.728 L961.296,215.728 L961.296,216.816 L958.336,216.816 L958.336,224 L957.088,224 Z M963.088,224 L963.088,215.728 L964.32,215.728 L964.32,222.272 L969.232,215.728 L970.432,215.728 L970.432,224 L969.2,224 L969.2,217.456 L964.272,224 L963.088,224 Z" id="Баунти" fill="#333333"></path>
                        <path d="M915.584,320 L915.584,308.8 L919.776,308.8 C922.304,308.8 923.968,310.144 923.968,312.384 C923.968,314.8 921.952,316.048 919.568,316.048 L916.848,316.048 L916.848,320 L915.584,320 Z M916.848,314.896 L919.616,314.896 C921.472,314.896 922.688,313.904 922.688,312.4 C922.688,310.8 921.488,309.968 919.68,309.968 L916.848,309.968 L916.848,314.896 Z M929.68,320.192 C927.408,320.192 925.552,318.448 925.552,315.872 C925.552,313.472 927.232,311.552 929.52,311.552 C931.968,311.552 933.376,313.504 933.376,315.936 C933.376,316.048 933.376,316.176 933.36,316.368 L926.8,316.368 C926.976,318.112 928.256,319.12 929.712,319.12 C930.848,319.12 931.648,318.656 932.32,317.952 L933.088,318.64 C932.256,319.568 931.248,320.192 929.68,320.192 Z M926.8,315.376 L932.128,315.376 C931.984,313.872 931.12,312.592 929.488,312.592 C928.064,312.592 926.976,313.776 926.8,315.376 Z M938.16,320.192 C936.848,320.192 935.744,319.776 934.736,318.96 L935.36,318.048 C936.192,318.752 937.136,319.12 938.128,319.12 C939.2,319.12 940.176,318.608 940.176,317.648 C940.176,316.816 939.44,316.288 938.096,316.288 L936.992,316.288 L936.992,315.28 L938.112,315.28 C939.2,315.28 939.952,314.72 939.952,313.856 C939.952,313.088 939.184,312.624 938.16,312.624 C937.344,312.624 936.368,312.88 935.648,313.456 L935.04,312.592 C935.904,311.92 937.024,311.552 938.24,311.552 C940.096,311.552 941.232,312.48 941.232,313.76 C941.232,314.784 940.608,315.376 939.904,315.664 C940.816,315.984 941.44,316.608 941.44,317.696 C941.44,319.024 940.208,320.192 938.16,320.192 Z M947.344,320.192 C945.072,320.192 943.216,318.448 943.216,315.872 C943.216,313.472 944.896,311.552 947.184,311.552 C949.632,311.552 951.04,313.504 951.04,315.936 C951.04,316.048 951.04,316.176 951.024,316.368 L944.464,316.368 C944.64,318.112 945.92,319.12 947.376,319.12 C948.512,319.12 949.312,318.656 949.984,317.952 L950.752,318.64 C949.92,319.568 948.912,320.192 947.344,320.192 Z M944.464,315.376 L949.792,315.376 C949.648,313.872 948.784,312.592 947.152,312.592 C945.728,312.592 944.64,313.776 944.464,315.376 Z M953.2,322.56 L953.2,311.728 L954.432,311.728 L954.432,313.392 C955.104,312.4 956.08,311.552 957.6,311.552 C959.584,311.552 961.552,313.12 961.552,315.872 C961.552,318.576 959.6,320.176 957.6,320.176 C956.064,320.176 955.072,319.344 954.432,318.416 L954.432,322.56 L953.2,322.56 Z M957.376,319.072 C958.976,319.072 960.288,317.888 960.288,315.856 C960.288,313.904 958.944,312.656 957.376,312.656 C955.84,312.656 954.384,313.952 954.384,315.872 C954.384,317.792 955.84,319.072 957.376,319.072 Z M963.824,320 L963.824,311.728 L967.824,311.728 C969.472,311.728 970.528,312.544 970.528,313.792 C970.528,314.88 969.84,315.408 969.152,315.696 C970.144,315.968 970.976,316.576 970.976,317.744 C970.976,319.136 969.792,320 967.968,320 L963.824,320 Z M965.056,318.944 L967.808,318.944 C968.992,318.944 969.712,318.416 969.712,317.552 C969.712,316.752 968.992,316.272 967.648,316.272 L965.056,316.272 L965.056,318.944 Z M965.056,315.28 L967.6,315.28 C968.592,315.28 969.28,314.816 969.28,313.952 C969.28,313.264 968.704,312.784 967.632,312.784 L965.056,312.784 L965.056,315.28 Z" id="Резерв" fill="#333333"></path>
                    </g>
                </g>
            </g>
        </g>
    </g>
</svg>
