<?xml version="1.0" encoding="UTF-8"?>
<svg width="52px" height="52px" viewBox="0 0 52 52" version="1.1" xmlns="http://www.w3.org/2000/svg" xmlns:xlink="http://www.w3.org/1999/xlink">
    <defs></defs>
    <g id="Page-1" stroke="none" stroke-width="1" fill="none" fill-rule="evenodd">
        <path d="M26,50 C12.767,50 2,39.233 2,26 C2,12.767 12.767,2 26,2 C39.233,2 50,12.767 50,26 C50,39.233 39.233,50 26,50 L26,50 Z M26,0 C11.663,0 0,11.664 0,26 C0,40.336 11.663,52 26,52 C40.337,52 52,40.336 52,26 C52,11.664 40.337,0 26,0 L26,0 Z M8,27.001 L5.002,27.001 C4.449,27.001 4.002,26.553 4.002,26.001 C4.002,25.449 4.45,25.001 5.002,25.001 L8,25.001 C8.553,25.001 9,25.449 9,26.001 C9,26.554 8.552,27.001 8,27.001 L8,27.001 Z M47.998,26 C47.998,26.553 47.55,27 46.998,27 L43.999,27 C43.446,27 42.999,26.552 42.999,26 C42.999,25.448 43.447,25 43.999,25 L46.998,25 C47.551,25 47.998,25.448 47.998,26 L47.998,26 Z M16.608,43.874 L16.108,44.74 C15.923,45.061 15.587,45.24 15.241,45.24 C15.071,45.24 14.899,45.197 14.742,45.106 C14.264,44.83 14.1,44.219 14.376,43.74 L14.876,42.874 C15.152,42.396 15.765,42.232 16.242,42.508 C16.721,42.784 16.885,43.396 16.608,43.874 L16.608,43.874 Z M9.409,35.492 C9.686,35.97 9.521,36.582 9.043,36.858 L8.178,37.358 C8.021,37.449 7.849,37.492 7.679,37.492 C7.333,37.492 6.997,37.313 6.812,36.993 C6.535,36.514 6.699,35.903 7.178,35.626 L8.043,35.126 C8.52,34.849 9.132,35.014 9.409,35.492 L9.409,35.492 Z M9.492,16.242 C9.307,16.563 8.971,16.742 8.625,16.742 C8.455,16.742 8.283,16.699 8.126,16.608 L7.26,16.108 C6.781,15.832 6.617,15.221 6.894,14.742 C7.17,14.263 7.781,14.099 8.26,14.376 L9.126,14.876 C9.604,15.152 9.769,15.764 9.492,16.242 L9.492,16.242 Z M16.874,8.042 C17.15,8.521 16.986,9.132 16.508,9.409 C16.351,9.5 16.179,9.543 16.009,9.543 C15.663,9.543 15.327,9.364 15.142,9.043 L14.642,8.178 C14.365,7.7 14.529,7.088 15.008,6.812 C15.484,6.534 16.097,6.699 16.374,7.177 L16.874,8.042 Z M35.392,8.126 L35.892,7.26 C36.169,6.781 36.779,6.617 37.258,6.894 C37.736,7.17 37.9,7.781 37.624,8.26 L37.124,9.126 C36.938,9.447 36.603,9.626 36.257,9.626 C36.087,9.626 35.915,9.583 35.758,9.492 C35.279,9.216 35.115,8.604 35.392,8.126 L35.392,8.126 Z M42.591,16.508 C42.314,16.03 42.479,15.418 42.957,15.142 L43.822,14.642 C44.299,14.364 44.911,14.529 45.188,15.007 C45.465,15.486 45.301,16.097 44.822,16.374 L43.957,16.874 C43.8,16.965 43.628,17.008 43.458,17.008 C43.112,17.008 42.776,16.829 42.591,16.508 L42.591,16.508 Z M45.106,37.258 C44.921,37.579 44.585,37.758 44.239,37.758 C44.069,37.758 43.897,37.715 43.74,37.625 L42.874,37.125 C42.396,36.848 42.231,36.237 42.508,35.758 C42.784,35.279 43.396,35.115 43.874,35.392 L44.74,35.892 C45.219,36.168 45.383,36.78 45.106,37.258 L45.106,37.258 Z M37.358,43.823 C37.635,44.301 37.471,44.913 36.992,45.188 C36.835,45.28 36.663,45.323 36.493,45.323 C36.147,45.323 35.812,45.144 35.626,44.823 L35.126,43.957 C34.85,43.479 35.014,42.867 35.492,42.591 C35.969,42.313 36.581,42.479 36.858,42.957 L37.358,43.823 Z M27,44 L27,47 C27,47.552 26.553,48 26,48 C25.447,48 25,47.552 25,47 L25,44 C25,43.448 25.447,43 26,43 C26.553,43 27,43.448 27,44 L27,44 Z M26,27 C25.448,27 25,26.551 25,26 C25,25.449 25.448,25 26,25 C26.552,25 27,25.449 27,26 C27,26.551 26.552,27 26,27 L26,27 Z M40,25 L28.815,25 C28.514,24.153 27.848,23.486 27,23.184 L27,5 C27,4.448 26.553,4 26,4 C25.447,4 25,4.448 25,5 L25,23.184 C24.152,23.486 23.486,24.153 23.185,25 L22,25 C21.447,25 21,25.448 21,26 C21,26.552 21.447,27 22,27 L23.185,27 C23.486,27.847 24.152,28.514 25,28.815 L25,30 C25,30.552 25.447,31 26,31 C26.553,31 27,30.552 27,30 L27,28.816 C27.848,28.514 28.514,27.847 28.815,27 L40,27 C40.553,27 41,26.552 41,26 C41,25.448 40.553,25 40,25 L40,25 Z" id="clock" fill="#2F444D"></path>
    </g>
</svg>
